<svg width="177" height="170" viewBox="0 0 177 170" fill="none" xmlns="http://www.w3.org/2000/svg">
<path d="M160.567 163.193C160.379 163.202 160.193 163.152 160.034 163.052C159.875 162.951 159.751 162.804 159.678 162.63C159.605 162.456 159.588 162.264 159.628 162.08C159.668 161.896 159.764 161.729 159.902 161.601L159.965 161.351C159.956 161.331 159.948 161.311 159.94 161.291C159.75 160.844 159.433 160.462 159.027 160.194C158.621 159.927 158.146 159.785 157.66 159.787C157.174 159.788 156.699 159.934 156.295 160.204C155.892 160.475 155.577 160.859 155.391 161.308C154.647 163.1 153.7 164.895 153.466 166.79C153.364 167.627 153.407 168.476 153.594 169.299C151.847 165.487 150.939 161.344 150.934 157.15C150.933 156.098 150.992 155.047 151.109 154.001C151.205 153.144 151.34 152.292 151.511 151.447C152.448 146.862 154.459 142.564 157.379 138.907C158.792 138.136 159.935 136.95 160.654 135.509C160.914 134.991 161.098 134.439 161.2 133.868C161.041 133.889 160.599 131.461 160.719 131.312C160.497 130.975 160.099 130.807 159.857 130.478C158.65 128.842 156.987 129.128 156.119 131.351C154.265 132.287 154.247 133.839 155.385 135.332C156.109 136.281 156.208 137.566 156.843 138.583C156.778 138.667 156.71 138.748 156.645 138.831C155.45 140.367 154.409 142.016 153.536 143.755C153.749 141.807 153.495 139.837 152.797 138.005C152.09 136.299 150.764 134.862 149.596 133.386C148.194 131.614 145.318 132.387 145.07 134.634C145.068 134.656 145.066 134.677 145.063 134.699C145.237 134.797 145.407 134.901 145.573 135.011C145.781 135.15 145.943 135.349 146.037 135.582C146.13 135.815 146.151 136.071 146.097 136.316C146.043 136.561 145.916 136.784 145.732 136.955C145.549 137.127 145.319 137.239 145.071 137.277L145.045 137.281C145.107 137.906 145.216 138.526 145.372 139.135C143.874 144.928 147.108 147.037 151.726 147.132C151.828 147.185 151.927 147.237 152.029 147.286C151.152 149.771 150.602 152.36 150.393 154.986C150.274 156.536 150.281 158.093 150.414 159.641L150.406 159.586C150.071 157.864 149.153 156.311 147.805 155.188C145.804 153.544 142.976 152.938 140.817 151.617C140.588 151.469 140.321 151.391 140.048 151.39C139.776 151.389 139.509 151.467 139.278 151.613C139.048 151.759 138.865 151.968 138.749 152.215C138.634 152.462 138.592 152.737 138.628 153.008C138.631 153.027 138.633 153.046 138.636 153.065C138.958 153.196 139.272 153.347 139.575 153.517C139.748 153.615 139.918 153.719 140.084 153.829C140.293 153.968 140.454 154.168 140.548 154.4C140.642 154.633 140.662 154.889 140.608 155.134C140.554 155.379 140.427 155.602 140.244 155.774C140.061 155.945 139.83 156.058 139.582 156.096L139.556 156.1C139.538 156.102 139.522 156.105 139.504 156.108C140.054 157.421 140.826 158.629 141.786 159.68C142.723 164.737 146.745 165.217 151.049 163.745H151.051C151.523 165.796 152.208 167.793 153.093 169.704H160.385C160.411 169.623 160.434 169.539 160.458 169.458C159.783 169.5 159.105 169.46 158.44 169.338C158.981 168.674 159.522 168.005 160.063 167.341C160.075 167.329 160.087 167.315 160.097 167.302C160.372 166.962 160.649 166.625 160.923 166.285L160.923 166.285C160.938 165.243 160.818 164.204 160.568 163.193L160.567 163.193Z" fill="#F2F2F2"/>
<path d="M148.417 98.3493C150.35 91.3321 153.955 85.3558 159.775 80.7581C160.005 80.4023 160.367 80.1524 160.782 80.0632C161.196 79.974 161.629 80.0528 161.985 80.2823L175.27 88.8602C175.626 89.0905 175.876 89.4525 175.965 89.8668C176.055 90.2811 175.976 90.7139 175.746 91.0702L164.388 108.661C164.158 109.017 163.796 109.267 163.381 109.356C162.967 109.445 162.534 109.367 162.178 109.137L148.893 100.559C148.537 100.329 148.287 99.967 148.198 99.5527C148.109 99.1383 148.188 98.7056 148.417 98.3493V98.3493Z" fill="#383748"/>
<path d="M152.866 93.6943C153.364 89.9867 156.431 86.1966 160.168 82.3851C160.384 82.0519 160.723 81.8178 161.111 81.7343C161.499 81.6507 161.904 81.7245 162.238 81.9394L173.655 89.3114C173.989 89.5271 174.223 89.8661 174.306 90.2542C174.39 90.6422 174.316 91.0475 174.101 91.3812L163.994 107.035C163.778 107.368 163.439 107.602 163.051 107.686C162.663 107.769 162.258 107.695 161.924 107.481L154.851 102.914C153.367 101.953 152.324 100.443 151.952 98.7145C151.58 96.9861 151.909 95.1807 152.866 93.6943V93.6943Z" fill="white"/>
<path d="M153.886 108.811C152.2 101.731 152.481 94.7568 155.368 87.9242C155.398 87.5015 155.595 87.1082 155.915 86.8304C156.235 86.5527 156.653 86.4133 157.075 86.4429L172.85 87.5621C173.272 87.5926 173.666 87.7895 173.943 88.1097C174.221 88.4298 174.36 88.847 174.331 89.2698L172.849 110.157C172.818 110.579 172.622 110.973 172.301 111.25C171.981 111.528 171.564 111.668 171.141 111.638L155.367 110.519C154.944 110.488 154.551 110.291 154.273 109.971C153.996 109.651 153.856 109.234 153.886 108.811V108.811Z" fill="#383748"/>
<path d="M155.543 102.588C154.194 99.0989 155.057 94.3002 156.496 89.16C156.524 88.7642 156.709 88.3958 157.009 88.1357C157.308 87.8756 157.699 87.745 158.095 87.7727L171.652 88.7346C172.048 88.7631 172.416 88.9475 172.676 89.2474C172.936 89.5472 173.067 89.9379 173.039 90.3339L171.72 108.92C171.692 109.316 171.507 109.685 171.207 109.945C170.908 110.205 170.517 110.335 170.121 110.308L161.723 109.712C159.959 109.585 158.318 108.763 157.16 107.428C156.001 106.092 155.42 104.352 155.543 102.588Z" fill="white"/>
<path d="M155.245 65.1008L148.488 40.0881C148.198 39.0293 147.504 38.1267 146.555 37.5751C145.606 37.0235 144.478 36.8672 143.415 37.1399C142.865 37.2809 142.349 37.5326 141.899 37.8794C141.45 38.2262 141.075 38.661 140.799 39.1572C140.523 39.6534 140.351 40.2006 140.293 40.7655C140.235 41.3305 140.293 41.9012 140.463 42.443L148.28 68.2098L152.369 84.0669C151.773 84.5217 151.332 85.1488 151.105 85.863C150.879 86.5773 150.877 87.344 151.101 88.0591C151.326 88.7741 151.764 89.4028 152.358 89.8598C152.952 90.3168 153.672 90.5798 154.421 90.6133C155.17 90.6467 155.91 90.4488 156.543 90.0465C157.175 89.6443 157.668 89.0571 157.955 88.3649C158.242 87.6726 158.309 86.9088 158.147 86.1772C157.984 85.4456 157.601 84.7817 157.048 84.2757L155.245 65.1008Z" fill="#FFB6B6"/>
<path d="M106.509 69.4279L113.439 44.4625C113.73 43.404 113.592 42.2736 113.057 41.3154C112.521 40.3573 111.63 39.6481 110.577 39.3409C110.031 39.182 109.46 39.1358 108.896 39.2051C108.332 39.2744 107.789 39.4578 107.298 39.744C106.808 40.0303 106.381 40.4134 106.043 40.8701C105.706 41.3267 105.465 41.8473 105.335 42.4002L98.9312 68.5538L94.3701 84.2817C93.6259 84.3695 92.9268 84.6844 92.3677 85.1834C91.8087 85.6824 91.4168 86.3414 91.2453 87.0709C91.0738 87.8004 91.131 88.5649 91.4092 89.2608C91.6874 89.9566 92.1731 90.5499 92.8002 90.9601C93.4273 91.3703 94.1655 91.5775 94.9145 91.5536C95.6635 91.5296 96.387 91.2756 96.9866 90.8262C97.5862 90.3768 98.033 89.7536 98.2662 89.0414C98.4993 88.3293 98.5076 87.5626 98.2898 86.8455L106.509 69.4279Z" fill="#FFB6B6"/>
<path d="M146.167 165.327L141.751 165.327L139.65 148.293L146.168 148.294L146.167 165.327Z" fill="#FFB6B6"/>
<path d="M146.322 169.934L132.742 169.933V169.762C132.742 168.36 133.299 167.016 134.29 166.024C135.282 165.033 136.626 164.476 138.028 164.476H138.028L140.509 162.594L145.137 164.476L146.322 164.476L146.322 169.934Z" fill="#2F2E41"/>
<path d="M115.09 165.372L110.742 164.596L111.664 147.458L118.08 148.603L115.09 165.372Z" fill="#FFB6B6"/>
<path d="M114.433 169.934L101.064 167.55L101.095 167.381C101.341 166.001 102.125 164.775 103.275 163.973C104.425 163.171 105.846 162.859 107.226 163.105L107.226 163.105L109.999 161.688L114.225 164.353L115.392 164.561L114.433 169.934Z" fill="#2F2E41"/>
<path d="M115.521 87.0104C115.521 87.0104 111.405 92.8398 111.573 94.796C111.741 96.7523 113.194 95.1917 111.741 96.7522C110.287 98.3128 109.44 97.2658 110.154 99.1938C110.868 101.122 111.159 99.8734 110.868 101.122C110.578 102.37 111.159 150.124 111.159 150.124H118.727C118.727 150.124 122.995 122.434 122.455 121.141C121.915 119.849 121.927 120.411 122.502 119.038C123.078 117.664 123.619 116.03 123.619 116.03L129.601 99.1939L134.215 122.898L139.647 151.066H146.9C146.9 151.066 148.142 109.645 148.691 109.129C149.24 108.613 148.583 107.453 147.894 106.784C147.205 106.116 147.342 105.437 147.564 104.06C147.786 102.682 148.723 101.914 148.691 101.05C148.658 100.186 150.693 86.4525 147.496 84.2677C144.298 82.0829 115.521 87.0104 115.521 87.0104Z" fill="#2F2E41"/>
<path d="M140.825 28.9448L132.359 26.7511L128.407 21.3008L119.023 22.4545L117.025 29.8888L110.344 33.7669C122.32 33.8385 115.871 68.536 117.631 70.7746C119.064 72.5964 110.481 76.9303 113.171 79.6949C115.861 82.4595 114.866 81.3533 114.242 84.3632C113.618 87.373 109.068 90.5584 114.242 90.5268C119.416 90.4952 150.637 90.0491 149.745 86.481C148.853 82.9129 148.867 83.819 147.522 81.5818C146.177 79.3447 145.272 80.5949 145.724 77.2937C146.177 73.9925 144.707 71.4392 145.731 69.9784C147.303 67.7361 145.719 51.5502 144.237 51.9822L140.825 28.9448Z" fill="#6C63FF"/>
<path d="M138.408 29.0604C138.408 29.0604 144.601 26.4296 146.831 31.3358C147.543 32.9028 148.143 36.8388 148.721 35.966C149.299 35.0932 148.741 37.0066 149.099 37.009C149.418 37.0111 149.909 36.4946 149.538 38.2739C149.422 38.8575 149.455 39.461 149.635 40.0283C149.815 40.5955 150.136 41.1079 150.568 41.5176L139.805 47.9636L138.408 29.0604Z" fill="#6C63FF"/>
<path d="M115.143 33.5204C115.143 33.5204 108.95 30.8896 106.72 35.7958C106.093 37.1756 106.249 40.2415 105.028 39.8973C103.806 39.5531 104.673 40.85 104.512 41.3005C104.332 41.8027 105.117 43.2238 104.015 42.7265C102.914 42.2292 102.983 45.9776 102.983 45.9776L113.746 52.4236L115.143 33.5204Z" fill="#6C63FF"/>
<path d="M118.079 26.1729L116.295 29.295C116.295 29.295 111.388 31.9711 111.388 32.4171C111.388 32.8631 112.28 36.505 111.388 39.3672C110.496 42.2295 113.091 47.6123 113.619 52.0418C115.849 70.7746 109.217 77.581 107.82 89.5073L121.973 93.6408C121.973 93.6408 124.323 62.3002 124.323 55.164C124.323 48.0277 118.079 26.1729 118.079 26.1729Z" fill="#2F2E41"/>
<path d="M131.013 24.8345L134.659 26.9083C134.659 26.9083 139.431 27.9602 139.488 28.4026C139.545 28.845 139.561 33.5465 140.812 36.2713C142.062 38.9962 141.718 40.4451 145.085 48.5003C146.805 52.616 150.755 85.5449 150.755 85.5449L137.246 91.4524C137.246 91.4524 130.913 60.6686 130.001 53.5908C129.089 46.513 131.013 24.8345 131.013 24.8345Z" fill="#2F2E41"/>
<path d="M121.896 20.5824C126.99 20.5824 131.118 16.4534 131.118 11.36C131.118 6.26668 126.99 2.1377 121.896 2.1377C116.803 2.1377 112.674 6.26668 112.674 11.36C112.674 16.4534 116.803 20.5824 121.896 20.5824Z" fill="#FFB6B6"/>
<path d="M127.965 18.5254C125.785 16.8214 128.765 9.32531 125.165 10.9253C125.165 10.9253 120.765 8.12531 119.881 9.96531C118.857 12.0959 115.217 11.1293 112.981 10.3773C113.156 9.96882 113.281 9.54027 113.353 9.10131C112.94 9.42653 112.503 9.7194 112.045 9.97732C111.738 9.81323 111.466 9.59032 111.245 9.32131C111.027 9.0715 110.89 8.76092 110.854 8.43129C110.817 8.10166 110.882 7.76875 111.041 7.4773C111.413 6.9053 112.181 6.7293 112.633 6.22129C112.685 6.14985 112.719 6.06681 112.732 5.97929C112.745 5.89177 112.737 5.80238 112.708 5.71879C112.654 5.5144 112.646 5.30065 112.684 5.09276C112.722 4.88486 112.806 4.68795 112.929 4.51605C113.052 4.34414 113.211 4.20148 113.395 4.09822C113.58 3.99496 113.785 3.93364 113.996 3.91863C114.081 3.92122 114.165 3.9029 114.241 3.86527C114.62 3.63302 114.971 3.3564 115.285 3.04127C114.761 3.06527 115.401 -0.142272 120.597 0.465248C121.905 0.417252 122.588 1.85981 123.876 2.08782C126.998 0.303748 129.785 2.87728 131.141 5.33727C132.497 7.7973 133.965 15.7254 127.965 18.5254Z" fill="#2F2E41"/>
<path d="M89.6027 5.29492H6.93366C5.36093 5.29623 3.85293 5.92136 2.74053 7.03315C1.62812 8.14494 1.00218 9.65258 1 11.2253V85.7168C1.00205 87.2899 1.62785 88.7979 2.74019 89.9102C3.85252 91.0226 5.36059 91.6484 6.93366 91.6504H89.6027C91.1754 91.6483 92.6831 91.0223 93.7949 89.9099C94.9067 88.7975 95.5318 87.2895 95.5331 85.7168V11.2253C95.5317 9.65292 94.9064 8.14534 93.7945 7.03348C92.6827 5.92163 91.1751 5.29636 89.6027 5.29492V5.29492Z" fill="white"/>
<path d="M11.4209 30.8906V38H9.95605L7.09961 33.2344V38H5.63477V30.8906H7.09961L9.96094 35.6611V30.8906H11.4209ZM12.4428 35.4121V35.3096C12.4428 34.9222 12.4982 34.5658 12.6088 34.2402C12.7195 33.9115 12.8806 33.6266 13.0922 33.3857C13.3038 33.1449 13.5642 32.9577 13.8735 32.8242C14.1827 32.6875 14.5375 32.6191 14.9379 32.6191C15.3383 32.6191 15.6948 32.6875 16.0073 32.8242C16.3198 32.9577 16.5818 33.1449 16.7934 33.3857C17.0082 33.6266 17.171 33.9115 17.2817 34.2402C17.3924 34.5658 17.4477 34.9222 17.4477 35.3096V35.4121C17.4477 35.7962 17.3924 36.1527 17.2817 36.4814C17.171 36.807 17.0082 37.0918 16.7934 37.3359C16.5818 37.5768 16.3214 37.764 16.0121 37.8975C15.7029 38.0309 15.3481 38.0977 14.9477 38.0977C14.5473 38.0977 14.1909 38.0309 13.8784 37.8975C13.5691 37.764 13.3071 37.5768 13.0922 37.3359C12.8806 37.0918 12.7195 36.807 12.6088 36.4814C12.4982 36.1527 12.4428 35.7962 12.4428 35.4121ZM13.8491 35.3096V35.4121C13.8491 35.6335 13.8686 35.8402 13.9077 36.0322C13.9467 36.2243 14.0086 36.3936 14.0932 36.54C14.1811 36.6833 14.295 36.7956 14.435 36.877C14.575 36.9583 14.7459 36.999 14.9477 36.999C15.143 36.999 15.3107 36.9583 15.4506 36.877C15.5906 36.7956 15.7029 36.6833 15.7875 36.54C15.8722 36.3936 15.934 36.2243 15.9731 36.0322C16.0154 35.8402 16.0366 35.6335 16.0366 35.4121V35.3096C16.0366 35.0947 16.0154 34.8929 15.9731 34.7041C15.934 34.512 15.8705 34.3428 15.7827 34.1963C15.698 34.0465 15.5857 33.9294 15.4457 33.8447C15.3058 33.7601 15.1365 33.7178 14.9379 33.7178C14.7394 33.7178 14.5701 33.7601 14.4301 33.8447C14.2934 33.9294 14.1811 34.0465 14.0932 34.1963C14.0086 34.3428 13.9467 34.512 13.9077 34.7041C13.8686 34.8929 13.8491 35.0947 13.8491 35.3096ZM22.3284 33.8691V38H20.9222V32.7168H22.2454L22.3284 33.8691ZM23.9202 32.6826L23.8958 33.9863C23.8275 33.9766 23.7445 33.9684 23.6468 33.9619C23.5524 33.9521 23.4661 33.9473 23.388 33.9473C23.1894 33.9473 23.0169 33.9733 22.8704 34.0254C22.7272 34.0742 22.6068 34.1475 22.5091 34.2451C22.4147 34.3428 22.3431 34.4616 22.2943 34.6016C22.2487 34.7415 22.2226 34.901 22.2161 35.0801L21.9329 34.9922C21.9329 34.6504 21.9671 34.3363 22.0355 34.0498C22.1038 33.7601 22.2031 33.5078 22.3333 33.293C22.4668 33.0781 22.6295 32.9121 22.8216 32.7949C23.0137 32.6777 23.2334 32.6191 23.4808 32.6191C23.5589 32.6191 23.6387 32.6257 23.72 32.6387C23.8014 32.6484 23.8682 32.6631 23.9202 32.6826ZM26.9783 38.0977C26.5681 38.0977 26.2003 38.0326 25.8748 37.9023C25.5492 37.7689 25.2726 37.585 25.0447 37.3506C24.8201 37.1162 24.6476 36.8444 24.5271 36.5352C24.4067 36.2227 24.3464 35.8906 24.3464 35.5391V35.3438C24.3464 34.9434 24.4034 34.5771 24.5173 34.2451C24.6313 33.9131 24.794 33.625 25.0056 33.3809C25.2205 33.1367 25.4809 32.9495 25.7869 32.8193C26.0929 32.6859 26.4379 32.6191 26.822 32.6191C27.1964 32.6191 27.5284 32.681 27.8181 32.8047C28.1078 32.9284 28.3504 33.1042 28.5457 33.332C28.7442 33.5599 28.894 33.8333 28.9949 34.1523C29.0958 34.4681 29.1462 34.8197 29.1462 35.207V35.793H24.947V34.8555H27.7644V34.748C27.7644 34.5527 27.7286 34.3786 27.657 34.2256C27.5886 34.0693 27.4845 33.9456 27.3445 33.8545C27.2045 33.7633 27.0255 33.7178 26.8074 33.7178C26.6218 33.7178 26.4623 33.7585 26.3289 33.8398C26.1954 33.9212 26.0864 34.0352 26.0017 34.1816C25.9203 34.3281 25.8585 34.5007 25.8162 34.6992C25.7771 34.8945 25.7576 35.1094 25.7576 35.3438V35.5391C25.7576 35.7507 25.7869 35.946 25.8455 36.125C25.9073 36.304 25.9936 36.4587 26.1043 36.5889C26.2182 36.7191 26.3549 36.82 26.5144 36.8916C26.6772 36.9632 26.8611 36.999 27.0662 36.999C27.3201 36.999 27.5561 36.9502 27.7742 36.8525C27.9955 36.7516 28.186 36.6003 28.3455 36.3984L29.0291 37.1406C28.9184 37.3001 28.767 37.4531 28.575 37.5996C28.3862 37.7461 28.1583 37.8665 27.8914 37.9609C27.6244 38.0521 27.3201 38.0977 26.9783 38.0977ZM31.4914 30.5V38H30.0803V30.5H31.4914ZM35.5651 36.8086V34.4551C35.5651 34.2858 35.5374 34.141 35.4821 34.0205C35.4267 33.8968 35.3405 33.8008 35.2233 33.7324C35.1093 33.6641 34.9612 33.6299 34.7789 33.6299C34.6227 33.6299 34.4876 33.6576 34.3737 33.7129C34.2597 33.765 34.1718 33.8415 34.11 33.9424C34.0482 34.04 34.0172 34.1556 34.0172 34.2891H32.611C32.611 34.0645 32.6631 33.8512 32.7672 33.6494C32.8714 33.4476 33.0228 33.2702 33.2213 33.1172C33.4199 32.9609 33.6559 32.8389 33.9293 32.751C34.206 32.6631 34.5153 32.6191 34.8571 32.6191C35.2672 32.6191 35.6318 32.6875 35.9508 32.8242C36.2698 32.9609 36.5205 33.166 36.7028 33.4395C36.8883 33.7129 36.9811 34.0547 36.9811 34.4648V36.7256C36.9811 37.0153 36.999 37.2529 37.0348 37.4385C37.0706 37.6208 37.1227 37.7803 37.1911 37.917V38H35.7702C35.7018 37.8568 35.6497 37.6777 35.6139 37.4629C35.5814 37.2448 35.5651 37.0267 35.5651 36.8086ZM35.7506 34.7822L35.7604 35.5781H34.9743C34.7887 35.5781 34.6276 35.5993 34.4909 35.6416C34.3541 35.6839 34.2418 35.7441 34.1539 35.8223C34.0661 35.8971 34.001 35.985 33.9586 36.0859C33.9196 36.1868 33.9 36.2975 33.9 36.418C33.9 36.5384 33.9277 36.6475 33.983 36.7451C34.0384 36.8395 34.1181 36.9144 34.2223 36.9697C34.3265 37.0218 34.4485 37.0479 34.5885 37.0479C34.8001 37.0479 34.984 37.0055 35.1403 36.9209C35.2965 36.8363 35.417 36.7321 35.5016 36.6084C35.5895 36.4847 35.6351 36.3675 35.6383 36.2568L36.0094 36.8525C35.9573 36.986 35.8857 37.1243 35.7946 37.2676C35.7067 37.4108 35.5944 37.5459 35.4577 37.6729C35.3209 37.7965 35.1566 37.8991 34.9645 37.9805C34.7724 38.0586 34.5446 38.0977 34.2809 38.0977C33.9456 38.0977 33.6413 38.0309 33.3678 37.8975C33.0976 37.7607 32.8828 37.5736 32.7233 37.3359C32.567 37.0951 32.4889 36.8216 32.4889 36.5156C32.4889 36.2389 32.541 35.9932 32.6452 35.7783C32.7493 35.5635 32.9023 35.3828 33.1041 35.2363C33.3092 35.0866 33.5648 34.9743 33.8707 34.8994C34.1767 34.8213 34.5316 34.7822 34.9352 34.7822H35.7506ZM40.713 32.7168V33.7129H37.6368V32.7168H40.713ZM38.3985 31.4131H39.8048V36.4082C39.8048 36.5612 39.8243 36.6784 39.8634 36.7598C39.9057 36.8411 39.9675 36.8981 40.0489 36.9307C40.1303 36.96 40.2328 36.9746 40.3565 36.9746C40.4444 36.9746 40.5225 36.9714 40.5909 36.9648C40.6625 36.9551 40.7227 36.9453 40.7716 36.9355L40.7764 37.9707C40.656 38.0098 40.5258 38.0407 40.3858 38.0635C40.2458 38.0863 40.0912 38.0977 39.922 38.0977C39.6127 38.0977 39.3425 38.0472 39.1114 37.9463C38.8835 37.8421 38.7078 37.6761 38.5841 37.4482C38.4604 37.2204 38.3985 36.9209 38.3985 36.5498V31.4131ZM44.0054 38.0977C43.5952 38.0977 43.2274 38.0326 42.9019 37.9023C42.5764 37.7689 42.2997 37.585 42.0718 37.3506C41.8472 37.1162 41.6747 36.8444 41.5542 36.5352C41.4338 36.2227 41.3736 35.8906 41.3736 35.5391V35.3438C41.3736 34.9434 41.4305 34.5771 41.5445 34.2451C41.6584 33.9131 41.8211 33.625 42.0327 33.3809C42.2476 33.1367 42.508 32.9495 42.814 32.8193C43.12 32.6859 43.465 32.6191 43.8491 32.6191C44.2235 32.6191 44.5555 32.681 44.8452 32.8047C45.1349 32.9284 45.3775 33.1042 45.5728 33.332C45.7713 33.5599 45.9211 33.8333 46.022 34.1523C46.1229 34.4681 46.1734 34.8197 46.1734 35.207V35.793H41.9741V34.8555H44.7915V34.748C44.7915 34.5527 44.7557 34.3786 44.6841 34.2256C44.6157 34.0693 44.5116 33.9456 44.3716 33.8545C44.2316 33.7633 44.0526 33.7178 43.8345 33.7178C43.6489 33.7178 43.4894 33.7585 43.356 33.8398C43.2225 33.9212 43.1135 34.0352 43.0288 34.1816C42.9474 34.3281 42.8856 34.5007 42.8433 34.6992C42.8042 34.8945 42.7847 35.1094 42.7847 35.3438V35.5391C42.7847 35.7507 42.814 35.946 42.8726 36.125C42.9344 36.304 43.0207 36.4587 43.1314 36.5889C43.2453 36.7191 43.382 36.82 43.5415 36.8916C43.7043 36.9632 43.8882 36.999 44.0933 36.999C44.3472 36.999 44.5832 36.9502 44.8013 36.8525C45.0226 36.7516 45.2131 36.6003 45.3726 36.3984L46.0562 37.1406C45.9455 37.3001 45.7941 37.4531 45.6021 37.5996C45.4133 37.7461 45.1854 37.8665 44.9185 37.9609C44.6515 38.0521 44.3472 38.0977 44.0054 38.0977ZM50.1543 36.8477V30.5H51.5703V38H50.2959L50.1543 36.8477ZM46.8144 35.4219V35.3193C46.8144 34.9157 46.86 34.5495 46.9511 34.2207C47.0423 33.8887 47.1757 33.6038 47.3515 33.3662C47.5273 33.1286 47.7438 32.9447 48.0009 32.8145C48.2581 32.6842 48.5511 32.6191 48.8798 32.6191C49.1891 32.6191 49.4593 32.6842 49.6904 32.8145C49.9248 32.9447 50.1233 33.1302 50.2861 33.3711C50.4521 33.6087 50.5856 33.8903 50.6865 34.2158C50.7874 34.5381 50.8606 34.8913 50.9062 35.2754V35.5C50.8606 35.8678 50.7874 36.2096 50.6865 36.5254C50.5856 36.8411 50.4521 37.1178 50.2861 37.3555C50.1233 37.5898 49.9248 37.7721 49.6904 37.9023C49.456 38.0326 49.1826 38.0977 48.8701 38.0977C48.5413 38.0977 48.2483 38.0309 47.9912 37.8975C47.7373 37.764 47.5224 37.5768 47.3466 37.3359C47.1741 37.0951 47.0423 36.8118 46.9511 36.4863C46.86 36.1608 46.8144 35.806 46.8144 35.4219ZM48.2207 35.3193V35.4219C48.2207 35.64 48.2369 35.8434 48.2695 36.0322C48.3053 36.221 48.3623 36.3887 48.4404 36.5352C48.5218 36.6784 48.6259 36.7907 48.7529 36.8721C48.8831 36.9502 49.041 36.9893 49.2265 36.9893C49.4674 36.9893 49.666 36.9355 49.8222 36.8281C49.9785 36.7174 50.0973 36.5661 50.1787 36.374C50.2633 36.182 50.3121 35.9606 50.3252 35.71V35.0703C50.3154 34.8652 50.2861 34.6813 50.2373 34.5186C50.1917 34.3525 50.1233 34.2109 50.0322 34.0938C49.9443 33.9766 49.8336 33.8854 49.7002 33.8203C49.5699 33.7552 49.4153 33.7227 49.2363 33.7227C49.054 33.7227 48.8977 33.765 48.7675 33.8496C48.6373 33.931 48.5315 34.0433 48.4502 34.1865C48.372 34.3298 48.3134 34.499 48.2744 34.6943C48.2386 34.8864 48.2207 35.0947 48.2207 35.3193ZM57.4618 36.999C57.6343 36.999 57.7873 36.9665 57.9207 36.9014C58.0542 36.833 58.1584 36.7386 58.2332 36.6182C58.3114 36.4945 58.3521 36.3496 58.3553 36.1836H59.6786C59.6753 36.5547 59.576 36.8851 59.3807 37.1748C59.1854 37.4613 58.9233 37.6875 58.5946 37.8535C58.2658 38.0163 57.898 38.0977 57.4911 38.0977C57.0809 38.0977 56.7228 38.0293 56.4168 37.8926C56.1141 37.7559 55.8618 37.5671 55.66 37.3262C55.4582 37.082 55.3068 36.7988 55.2059 36.4766C55.105 36.151 55.0545 35.8027 55.0545 35.4316V35.29C55.0545 34.9157 55.105 34.5674 55.2059 34.2451C55.3068 33.9196 55.4582 33.6364 55.66 33.3955C55.8618 33.1514 56.1141 32.9609 56.4168 32.8242C56.7196 32.6875 57.0744 32.6191 57.4813 32.6191C57.9142 32.6191 58.2935 32.7021 58.619 32.8682C58.9478 33.0342 59.2049 33.2718 59.3905 33.5811C59.5793 33.887 59.6753 34.25 59.6786 34.6699H58.3553C58.3521 34.4941 58.3146 34.3346 58.243 34.1914C58.1746 34.0482 58.0737 33.9342 57.9403 33.8496C57.8101 33.7617 57.6489 33.7178 57.4569 33.7178C57.2518 33.7178 57.0842 33.7617 56.9539 33.8496C56.8237 33.9342 56.7228 34.0514 56.6512 34.2012C56.5796 34.3477 56.5291 34.5153 56.4998 34.7041C56.4738 34.8896 56.4608 35.085 56.4608 35.29V35.4316C56.4608 35.6367 56.4738 35.8337 56.4998 36.0225C56.5259 36.2113 56.5747 36.3789 56.6463 36.5254C56.7212 36.6719 56.8237 36.7874 56.9539 36.8721C57.0842 36.9567 57.2534 36.999 57.4618 36.999ZM60.3294 35.4121V35.3096C60.3294 34.9222 60.3847 34.5658 60.4954 34.2402C60.6061 33.9115 60.7672 33.6266 60.9788 33.3857C61.1904 33.1449 61.4508 32.9577 61.76 32.8242C62.0693 32.6875 62.4241 32.6191 62.8245 32.6191C63.2249 32.6191 63.5813 32.6875 63.8938 32.8242C64.2063 32.9577 64.4684 33.1449 64.68 33.3857C64.8948 33.6266 65.0576 33.9115 65.1682 34.2402C65.2789 34.5658 65.3343 34.9222 65.3343 35.3096V35.4121C65.3343 35.7962 65.2789 36.1527 65.1682 36.4814C65.0576 36.807 64.8948 37.0918 64.68 37.3359C64.4684 37.5768 64.208 37.764 63.8987 37.8975C63.5895 38.0309 63.2346 38.0977 62.8343 38.0977C62.4339 38.0977 62.0774 38.0309 61.7649 37.8975C61.4557 37.764 61.1936 37.5768 60.9788 37.3359C60.7672 37.0918 60.6061 36.807 60.4954 36.4814C60.3847 36.1527 60.3294 35.7962 60.3294 35.4121ZM61.7356 35.3096V35.4121C61.7356 35.6335 61.7552 35.8402 61.7942 36.0322C61.8333 36.2243 61.8951 36.3936 61.9798 36.54C62.0677 36.6833 62.1816 36.7956 62.3216 36.877C62.4615 36.9583 62.6324 36.999 62.8343 36.999C63.0296 36.999 63.1972 36.9583 63.3372 36.877C63.4772 36.7956 63.5895 36.6833 63.6741 36.54C63.7587 36.3936 63.8206 36.2243 63.8596 36.0322C63.902 35.8402 63.9231 35.6335 63.9231 35.4121V35.3096C63.9231 35.0947 63.902 34.8929 63.8596 34.7041C63.8206 34.512 63.7571 34.3428 63.6692 34.1963C63.5846 34.0465 63.4723 33.9294 63.3323 33.8447C63.1923 33.7601 63.0231 33.7178 62.8245 33.7178C62.6259 33.7178 62.4567 33.7601 62.3167 33.8447C62.18 33.9294 62.0677 34.0465 61.9798 34.1963C61.8951 34.3428 61.8333 34.512 61.7942 34.7041C61.7552 34.8929 61.7356 35.0947 61.7356 35.3096ZM67.6355 33.8447V38H66.2292V32.7168H67.5476L67.6355 33.8447ZM67.4304 35.1729H67.0495C67.0495 34.7822 67.1 34.4307 67.2009 34.1182C67.3018 33.8024 67.4434 33.5339 67.6257 33.3125C67.808 33.0879 68.0245 32.917 68.2751 32.7998C68.529 32.6794 68.8122 32.6191 69.1247 32.6191C69.3721 32.6191 69.5984 32.6549 69.8034 32.7266C70.0085 32.7982 70.1843 32.9121 70.3308 33.0684C70.4805 33.2246 70.5945 33.4313 70.6726 33.6885C70.754 33.9456 70.7946 34.2598 70.7946 34.6309V38H69.3786V34.626C69.3786 34.3916 69.3461 34.2093 69.281 34.0791C69.2159 33.9489 69.1198 33.8577 68.9929 33.8057C68.8692 33.7503 68.7162 33.7227 68.5339 33.7227C68.3451 33.7227 68.1807 33.7601 68.0407 33.835C67.904 33.9098 67.7901 34.014 67.6989 34.1475C67.6111 34.2777 67.5443 34.4307 67.4987 34.6064C67.4532 34.7822 67.4304 34.971 67.4304 35.1729ZM74.5119 32.7168V33.7129H71.4357V32.7168H74.5119ZM72.1974 31.4131H73.6037V36.4082C73.6037 36.5612 73.6232 36.6784 73.6623 36.7598C73.7046 36.8411 73.7664 36.8981 73.8478 36.9307C73.9292 36.96 74.0317 36.9746 74.1554 36.9746C74.2433 36.9746 74.3214 36.9714 74.3898 36.9648C74.4614 36.9551 74.5216 36.9453 74.5705 36.9355L74.5753 37.9707C74.4549 38.0098 74.3247 38.0407 74.1847 38.0635C74.0447 38.0863 73.8901 38.0977 73.7209 38.0977C73.4116 38.0977 73.1414 38.0472 72.9103 37.9463C72.6824 37.8421 72.5067 37.6761 72.383 37.4482C72.2593 37.2204 72.1974 36.9209 72.1974 36.5498V31.4131ZM77.8043 38.0977C77.3941 38.0977 77.0263 38.0326 76.7008 37.9023C76.3753 37.7689 76.0986 37.585 75.8707 37.3506C75.6461 37.1162 75.4736 36.8444 75.3531 36.5352C75.2327 36.2227 75.1725 35.8906 75.1725 35.5391V35.3438C75.1725 34.9434 75.2294 34.5771 75.3434 34.2451C75.4573 33.9131 75.6201 33.625 75.8316 33.3809C76.0465 33.1367 76.3069 32.9495 76.6129 32.8193C76.9189 32.6859 77.2639 32.6191 77.648 32.6191C78.0224 32.6191 78.3544 32.681 78.6441 32.8047C78.9339 32.9284 79.1764 33.1042 79.3717 33.332C79.5702 33.5599 79.72 33.8333 79.8209 34.1523C79.9218 34.4681 79.9723 34.8197 79.9723 35.207V35.793H75.773V34.8555H78.5904V34.748C78.5904 34.5527 78.5546 34.3786 78.483 34.2256C78.4146 34.0693 78.3105 33.9456 78.1705 33.8545C78.0305 33.7633 77.8515 33.7178 77.6334 33.7178C77.4479 33.7178 77.2883 33.7585 77.1549 33.8398C77.0214 33.9212 76.9124 34.0352 76.8277 34.1816C76.7464 34.3281 76.6845 34.5007 76.6422 34.6992C76.6031 34.8945 76.5836 35.1094 76.5836 35.3438V35.5391C76.5836 35.7507 76.6129 35.946 76.6715 36.125C76.7333 36.304 76.8196 36.4587 76.9303 36.5889C77.0442 36.7191 77.1809 36.82 77.3404 36.8916C77.5032 36.9632 77.6871 36.999 77.8922 36.999C78.1461 36.999 78.3821 36.9502 78.6002 36.8525C78.8216 36.7516 79.012 36.6003 79.1715 36.3984L79.8551 37.1406C79.7444 37.3001 79.593 37.4531 79.401 37.5996C79.2122 37.7461 78.9843 37.8665 78.7174 37.9609C78.4505 38.0521 78.1461 38.0977 77.8043 38.0977ZM82.21 33.8447V38H80.8037V32.7168H82.1221L82.21 33.8447ZM82.0049 35.1729H81.6241C81.6241 34.7822 81.6745 34.4307 81.7754 34.1182C81.8763 33.8024 82.0179 33.5339 82.2002 33.3125C82.3825 33.0879 82.599 32.917 82.8496 32.7998C83.1036 32.6794 83.3868 32.6191 83.6993 32.6191C83.9467 32.6191 84.1729 32.6549 84.378 32.7266C84.583 32.7982 84.7588 32.9121 84.9053 33.0684C85.0551 33.2246 85.169 33.4313 85.2471 33.6885C85.3285 33.9456 85.3692 34.2598 85.3692 34.6309V38H83.9532V34.626C83.9532 34.3916 83.9206 34.2093 83.8555 34.0791C83.7904 33.9489 83.6944 33.8577 83.5674 33.8057C83.4437 33.7503 83.2907 33.7227 83.1084 33.7227C82.9196 33.7227 82.7552 33.7601 82.6153 33.835C82.4786 33.9098 82.3646 34.014 82.2735 34.1475C82.1856 34.2777 82.1189 34.4307 82.0733 34.6064C82.0277 34.7822 82.0049 34.971 82.0049 35.1729ZM89.0864 32.7168V33.7129H86.0102V32.7168H89.0864ZM86.7719 31.4131H88.1782V36.4082C88.1782 36.5612 88.1977 36.6784 88.2368 36.7598C88.2791 36.8411 88.341 36.8981 88.4223 36.9307C88.5037 36.96 88.6063 36.9746 88.73 36.9746C88.8178 36.9746 88.896 36.9714 88.9643 36.9648C89.0359 36.9551 89.0962 36.9453 89.145 36.9355L89.1499 37.9707C89.0294 38.0098 88.8992 38.0407 88.7593 38.0635C88.6193 38.0863 88.4647 38.0977 88.2954 38.0977C87.9861 38.0977 87.716 38.0472 87.4848 37.9463C87.257 37.8421 87.0812 37.6761 86.9575 37.4482C86.8338 37.2204 86.7719 36.9209 86.7719 36.5498V31.4131Z" fill="black"/>
<path d="M50.8423 22.3921H42.0105C41.5768 22.3921 41.1607 22.2198 40.854 21.9131C40.5473 21.6064 40.375 21.1904 40.375 20.7566C40.375 20.3228 40.5473 19.9068 40.854 19.6001C41.1607 19.2934 41.5768 19.1211 42.0105 19.1211H50.8423C51.2761 19.1211 51.6921 19.2934 51.9988 19.6001C52.3055 19.9068 52.4779 20.3228 52.4779 20.7566C52.4779 21.1904 52.3055 21.6064 51.9988 21.9131C51.6921 22.2198 51.2761 22.3921 50.8423 22.3921Z" fill="#6C63FF"/>
<path d="M167.946 97.5386H159.114C158.68 97.5386 158.264 97.3663 157.958 97.0596C157.651 96.7529 157.479 96.3369 157.479 95.9031C157.479 95.4693 157.651 95.0533 157.958 94.7466C158.264 94.4399 158.68 94.2676 159.114 94.2676H167.946C168.38 94.2676 168.796 94.4399 169.102 94.7466C169.409 95.0533 169.581 95.4693 169.581 95.9031C169.581 96.3369 169.409 96.7529 169.102 97.0596C168.796 97.3663 168.38 97.5386 167.946 97.5386V97.5386Z" fill="#6C63FF"/>
<path d="M73.7404 56.6504H19.114C18.6803 56.6504 18.2643 56.4781 17.9575 56.1714C17.6508 55.8647 17.4785 55.4487 17.4785 55.0149C17.4785 54.5811 17.6508 54.1651 17.9575 53.8584C18.2643 53.5517 18.6803 53.3794 19.114 53.3794H73.7404C74.1742 53.3794 74.5902 53.5517 74.8969 53.8584C75.2036 54.1651 75.3759 54.5811 75.3759 55.0149C75.3759 55.4487 75.2036 55.8647 74.8969 56.1714C74.5902 56.4781 74.1742 56.6504 73.7404 56.6504Z" fill="#E6E6E6"/>
<path d="M73.7404 67.4449H19.114C18.6803 67.4449 18.2643 67.2726 17.9575 66.9658C17.6508 66.6591 17.4785 66.2431 17.4785 65.8093C17.4785 65.3756 17.6508 64.9596 17.9575 64.6529C18.2643 64.3461 18.6803 64.1738 19.114 64.1738H73.7404C74.1742 64.1738 74.5902 64.3461 74.8969 64.6529C75.2036 64.9596 75.3759 65.3756 75.3759 65.8093C75.3759 66.2431 75.2036 66.6591 74.8969 66.9658C74.5902 67.2726 74.1742 67.4449 73.7404 67.4449Z" fill="#E6E6E6"/>
<path d="M73.7404 78.2393H19.114C18.6803 78.2393 18.2643 78.067 17.9575 77.7603C17.6508 77.4535 17.4785 77.0375 17.4785 76.6038C17.4785 76.17 17.6508 75.754 17.9575 75.4473C18.2643 75.1406 18.6803 74.9683 19.114 74.9683H73.7404C74.1742 74.9683 74.5902 75.1406 74.8969 75.4473C75.2036 75.754 75.3759 76.17 75.3759 76.6038C75.3759 77.0375 75.2036 77.4535 74.8969 77.7603C74.5902 78.067 74.1742 78.2393 73.7404 78.2393Z" fill="#E6E6E6"/>
<path d="M88.6144 5.29492H5.94538C4.37264 5.29623 2.86465 5.92136 1.75224 7.03315C0.639843 8.14494 0.0138952 9.65258 0.0117188 11.2253V85.7168C0.0137639 87.2899 0.639569 88.7979 1.75191 89.9102C2.86424 91.0226 4.3723 91.6484 5.94538 91.6504H88.6144C90.1872 91.6483 91.6948 91.0223 92.8066 89.9099C93.9184 88.7975 94.5435 87.2895 94.5448 85.7168V11.2253C94.5434 9.65292 93.9181 8.14534 92.8063 7.03348C91.6944 5.92163 90.1868 5.29636 88.6144 5.29492V5.29492ZM93.8906 85.7168C93.8906 87.117 93.3344 88.4598 92.3443 89.4499C91.3542 90.44 90.0113 90.9962 88.6111 90.9962H43.2551C37.6622 90.9962 32.1241 89.8946 26.957 87.7543C21.7898 85.614 17.0948 82.4769 13.14 78.5221C9.18524 74.5674 6.04814 69.8724 3.90783 64.7052C1.76752 59.538 0.665925 53.9999 0.665927 48.407V11.2253C0.668153 9.82611 1.2252 8.48488 2.2149 7.49579C3.2046 6.5067 4.54617 5.95049 5.94538 5.94913H88.6144C90.0133 5.95062 91.3545 6.50698 92.3436 7.49614C93.3328 8.48529 93.8891 9.82645 93.8906 11.2253V85.7168Z" fill="#E6E6E6"/>
</svg>
